<svg width="419" height="472" viewBox="0 0 419 472" fill="none" xmlns="http://www.w3.org/2000/svg">
<path d="M75.1811 244.758C74.4311 243.908 73.5561 243.158 72.5561 242.508C71.5561 241.808 70.4311 241.208 69.1811 240.708C67.9311 240.208 66.5811 239.808 65.1311 239.508C63.7311 239.208 62.2311 239.058 60.6311 239.058C55.9811 239.058 52.5561 239.958 50.3561 241.758C48.2061 243.508 47.1311 245.908 47.1311 248.958C47.1311 251.058 47.6311 252.708 48.6311 253.908C49.6811 255.108 51.3061 256.083 53.5061 256.833C55.7061 257.583 58.5061 258.358 61.9061 259.158C65.7061 259.958 68.9811 260.908 71.7311 262.008C74.4811 263.108 76.6061 264.608 78.1061 266.508C79.6061 268.358 80.3561 270.883 80.3561 274.083C80.3561 276.533 79.8811 278.658 78.9311 280.458C77.9811 282.258 76.6561 283.758 74.9561 284.958C73.2561 286.158 71.2311 287.058 68.8811 287.658C66.5311 288.208 63.9561 288.483 61.1561 288.483C58.4061 288.483 55.7561 288.208 53.2061 287.658C50.7061 287.058 48.3311 286.208 46.0811 285.108C43.8311 283.958 41.7311 282.508 39.7811 280.758L42.4061 276.483C43.3561 277.483 44.4811 278.433 45.7811 279.333C47.1311 280.183 48.6061 280.958 50.2061 281.658C51.8561 282.358 53.6061 282.908 55.4561 283.308C57.3561 283.658 59.3061 283.833 61.3061 283.833C65.5561 283.833 68.8561 283.058 71.2061 281.508C73.6061 279.958 74.8061 277.658 74.8061 274.608C74.8061 272.408 74.2061 270.658 73.0061 269.358C71.8061 268.008 70.0061 266.908 67.6061 266.058C65.2061 265.208 62.2561 264.383 58.7561 263.583C55.0561 262.733 51.9311 261.783 49.3811 260.733C46.8311 259.683 44.9061 258.308 43.6061 256.608C42.3561 254.858 41.7311 252.558 41.7311 249.708C41.7311 246.408 42.5311 243.633 44.1311 241.383C45.7811 239.083 48.0311 237.358 50.8811 236.208C53.7311 235.008 57.0061 234.408 60.7061 234.408C63.0561 234.408 65.2311 234.658 67.2311 235.158C69.2811 235.608 71.1561 236.283 72.8561 237.183C74.6061 238.083 76.2311 239.208 77.7311 240.558L75.1811 244.758ZM100.863 288.033V234.783H106.113V288.033H100.863ZM177.891 288.033V244.683L158.616 278.358H155.316L135.966 244.683V288.033H130.716V234.783H136.116L156.891 271.233L177.816 234.783H183.141V288.033H177.891ZM247.788 274.308C247.788 276.958 247.113 279.333 245.763 281.433C244.413 283.483 242.588 285.108 240.288 286.308C238.038 287.458 235.563 288.033 232.863 288.033H207.738V234.783H233.388C235.888 234.783 238.038 235.458 239.838 236.808C241.688 238.108 243.088 239.808 244.038 241.908C245.038 243.958 245.538 246.108 245.538 248.358C245.538 251.008 244.863 253.458 243.513 255.708C242.163 257.958 240.288 259.633 237.888 260.733C240.938 261.633 243.338 263.308 245.088 265.758C246.888 268.208 247.788 271.058 247.788 274.308ZM242.538 273.408C242.538 271.608 242.138 269.958 241.338 268.458C240.538 266.908 239.438 265.658 238.038 264.708C236.688 263.758 235.138 263.283 233.388 263.283H212.988V283.458H232.863C234.663 283.458 236.288 282.983 237.738 282.033C239.188 281.083 240.338 279.858 241.188 278.358C242.088 276.808 242.538 275.158 242.538 273.408ZM212.988 239.358V259.008H231.288C233.038 259.008 234.588 258.558 235.938 257.658C237.288 256.708 238.363 255.483 239.163 253.983C239.963 252.483 240.363 250.883 240.363 249.183C240.363 247.383 239.988 245.758 239.238 244.308C238.488 242.808 237.463 241.608 236.163 240.708C234.863 239.808 233.388 239.358 231.738 239.358H212.988ZM284.34 234.783H288.765L310.89 288.033H305.34L298.44 271.383H274.515L267.69 288.033H262.065L284.34 234.783ZM297.24 267.258L286.515 240.933L275.64 267.258H297.24ZM335.024 244.458V288.033H329.774V234.783H334.124L369.074 279.183V234.858H374.324V288.033H369.449L335.024 244.458Z" fill="#461990"/>
<path d="M95.1276 200.313V189.663H96.1776V200.313H95.1276ZM101.398 191.598V200.313H100.348V189.663H101.218L108.208 198.543V189.678H109.258V200.313H108.283L101.398 191.598ZM120.995 190.593H117.2V200.313H116.15V190.593H112.355V189.663H120.995V190.593ZM131.245 199.383V200.313H124.09V189.663H131.11V190.593H125.14V194.433H130.345V195.318H125.14V199.383H131.245ZM134.731 200.313V189.663H139.231C139.691 189.663 140.111 189.758 140.491 189.948C140.871 190.138 141.201 190.398 141.481 190.728C141.771 191.048 141.991 191.408 142.141 191.808C142.301 192.198 142.381 192.598 142.381 193.008C142.381 193.518 142.281 193.998 142.081 194.448C141.891 194.898 141.616 195.278 141.256 195.588C140.906 195.898 140.491 196.103 140.011 196.203L142.621 200.313H141.436L138.931 196.383H135.781V200.313H134.731ZM135.781 195.453H139.261C139.681 195.453 140.046 195.338 140.356 195.108C140.666 194.878 140.906 194.578 141.076 194.208C141.246 193.828 141.331 193.428 141.331 193.008C141.331 192.578 141.231 192.183 141.031 191.823C140.841 191.453 140.581 191.158 140.251 190.938C139.931 190.708 139.571 190.593 139.171 190.593H135.781V195.453ZM147.081 191.598V200.313H146.031V189.663H146.901L153.891 198.543V189.678H154.941V200.313H153.966L147.081 191.598ZM166.273 199.383V200.313H159.118V189.663H166.138V190.593H160.168V194.433H165.373V195.318H160.168V199.383H166.273ZM175.925 191.658C175.775 191.488 175.6 191.338 175.4 191.208C175.2 191.068 174.975 190.948 174.725 190.848C174.475 190.748 174.205 190.668 173.915 190.608C173.635 190.548 173.335 190.518 173.015 190.518C172.085 190.518 171.4 190.698 170.96 191.058C170.53 191.408 170.315 191.888 170.315 192.498C170.315 192.918 170.415 193.248 170.615 193.488C170.825 193.728 171.15 193.923 171.59 194.073C172.03 194.223 172.59 194.378 173.27 194.538C174.03 194.698 174.685 194.888 175.235 195.108C175.785 195.328 176.21 195.628 176.51 196.008C176.81 196.378 176.96 196.883 176.96 197.523C176.96 198.013 176.865 198.438 176.675 198.798C176.485 199.158 176.22 199.458 175.88 199.698C175.54 199.938 175.135 200.118 174.665 200.238C174.195 200.348 173.68 200.403 173.12 200.403C172.57 200.403 172.04 200.348 171.53 200.238C171.03 200.118 170.555 199.948 170.105 199.728C169.655 199.498 169.235 199.208 168.845 198.858L169.37 198.003C169.56 198.203 169.785 198.393 170.045 198.573C170.315 198.743 170.61 198.898 170.93 199.038C171.26 199.178 171.61 199.288 171.98 199.368C172.36 199.438 172.75 199.473 173.15 199.473C174 199.473 174.66 199.318 175.13 199.008C175.61 198.698 175.85 198.238 175.85 197.628C175.85 197.188 175.73 196.838 175.49 196.578C175.25 196.308 174.89 196.088 174.41 195.918C173.93 195.748 173.34 195.583 172.64 195.423C171.9 195.253 171.275 195.063 170.765 194.853C170.255 194.643 169.87 194.368 169.61 194.028C169.36 193.678 169.235 193.218 169.235 192.648C169.235 191.988 169.395 191.433 169.715 190.983C170.045 190.523 170.495 190.178 171.065 189.948C171.635 189.708 172.29 189.588 173.03 189.588C173.5 189.588 173.935 189.638 174.335 189.738C174.745 189.828 175.12 189.963 175.46 190.143C175.81 190.323 176.135 190.548 176.435 190.818L175.925 191.658ZM193.644 197.568C193.644 198.098 193.509 198.573 193.239 198.993C192.969 199.403 192.604 199.728 192.144 199.968C191.694 200.198 191.199 200.313 190.659 200.313H185.634V189.663H190.764C191.264 189.663 191.694 189.798 192.054 190.068C192.424 190.328 192.704 190.668 192.894 191.088C193.094 191.498 193.194 191.928 193.194 192.378C193.194 192.908 193.059 193.398 192.789 193.848C192.519 194.298 192.144 194.633 191.664 194.853C192.274 195.033 192.754 195.368 193.104 195.858C193.464 196.348 193.644 196.918 193.644 197.568ZM192.594 197.388C192.594 197.028 192.514 196.698 192.354 196.398C192.194 196.088 191.974 195.838 191.694 195.648C191.424 195.458 191.114 195.363 190.764 195.363H186.684V199.398H190.659C191.019 199.398 191.344 199.303 191.634 199.113C191.924 198.923 192.154 198.678 192.324 198.378C192.504 198.068 192.594 197.738 192.594 197.388ZM186.684 190.578V194.508H190.344C190.694 194.508 191.004 194.418 191.274 194.238C191.544 194.048 191.759 193.803 191.919 193.503C192.079 193.203 192.159 192.883 192.159 192.543C192.159 192.183 192.084 191.858 191.934 191.568C191.784 191.268 191.579 191.028 191.319 190.848C191.059 190.668 190.764 190.578 190.434 190.578H186.684ZM200.205 189.663H201.09L205.515 200.313H204.405L203.025 196.983H198.24L196.875 200.313H195.75L200.205 189.663ZM202.785 196.158L200.64 190.893L198.465 196.158H202.785ZM214.62 191.658C214.47 191.488 214.295 191.338 214.095 191.208C213.895 191.068 213.67 190.948 213.42 190.848C213.17 190.748 212.9 190.668 212.61 190.608C212.33 190.548 212.03 190.518 211.71 190.518C210.78 190.518 210.095 190.698 209.655 191.058C209.225 191.408 209.01 191.888 209.01 192.498C209.01 192.918 209.11 193.248 209.31 193.488C209.52 193.728 209.845 193.923 210.285 194.073C210.725 194.223 211.285 194.378 211.965 194.538C212.725 194.698 213.38 194.888 213.93 195.108C214.48 195.328 214.905 195.628 215.205 196.008C215.505 196.378 215.655 196.883 215.655 197.523C215.655 198.013 215.56 198.438 215.37 198.798C215.18 199.158 214.915 199.458 214.575 199.698C214.235 199.938 213.83 200.118 213.36 200.238C212.89 200.348 212.375 200.403 211.815 200.403C211.265 200.403 210.735 200.348 210.225 200.238C209.725 200.118 209.25 199.948 208.8 199.728C208.35 199.498 207.93 199.208 207.54 198.858L208.065 198.003C208.255 198.203 208.48 198.393 208.74 198.573C209.01 198.743 209.305 198.898 209.625 199.038C209.955 199.178 210.305 199.288 210.675 199.368C211.055 199.438 211.445 199.473 211.845 199.473C212.695 199.473 213.355 199.318 213.825 199.008C214.305 198.698 214.545 198.238 214.545 197.628C214.545 197.188 214.425 196.838 214.185 196.578C213.945 196.308 213.585 196.088 213.105 195.918C212.625 195.748 212.035 195.583 211.335 195.423C210.595 195.253 209.97 195.063 209.46 194.853C208.95 194.643 208.565 194.368 208.305 194.028C208.055 193.678 207.93 193.218 207.93 192.648C207.93 191.988 208.09 191.433 208.41 190.983C208.74 190.523 209.19 190.178 209.76 189.948C210.33 189.708 210.985 189.588 211.725 189.588C212.195 189.588 212.63 189.638 213.03 189.738C213.44 189.828 213.815 189.963 214.155 190.143C214.505 190.323 214.83 190.548 215.13 190.818L214.62 191.658ZM218.646 196.698V195.753H223.026V196.698H218.646ZM227.885 191.598V200.313H226.835V189.663H227.705L234.695 198.543V189.678H235.745V200.313H234.77L227.885 191.598ZM244.212 200.388C243.462 200.388 242.782 200.238 242.172 199.938C241.562 199.638 241.037 199.233 240.597 198.723C240.157 198.203 239.817 197.623 239.577 196.983C239.337 196.333 239.217 195.668 239.217 194.988C239.217 194.278 239.342 193.603 239.592 192.963C239.842 192.313 240.192 191.738 240.642 191.238C241.102 190.728 241.637 190.328 242.247 190.038C242.857 189.738 243.517 189.588 244.227 189.588C244.977 189.588 245.657 189.743 246.267 190.053C246.877 190.363 247.397 190.778 247.827 191.298C248.267 191.818 248.607 192.398 248.847 193.038C249.087 193.678 249.207 194.333 249.207 195.003C249.207 195.713 249.082 196.393 248.832 197.043C248.582 197.683 248.232 198.258 247.782 198.768C247.332 199.268 246.802 199.663 246.192 199.953C245.582 200.243 244.922 200.388 244.212 200.388ZM240.267 194.988C240.267 195.568 240.362 196.128 240.552 196.668C240.742 197.198 241.012 197.673 241.362 198.093C241.712 198.503 242.127 198.833 242.607 199.083C243.097 199.323 243.632 199.443 244.212 199.443C244.822 199.443 245.367 199.318 245.847 199.068C246.337 198.808 246.752 198.468 247.092 198.048C247.442 197.618 247.707 197.138 247.887 196.608C248.067 196.078 248.157 195.538 248.157 194.988C248.157 194.408 248.062 193.853 247.872 193.323C247.682 192.793 247.407 192.318 247.047 191.898C246.697 191.478 246.282 191.148 245.802 190.908C245.322 190.668 244.792 190.548 244.212 190.548C243.612 190.548 243.067 190.673 242.577 190.923C242.097 191.173 241.682 191.513 241.332 191.943C240.992 192.363 240.727 192.838 240.537 193.368C240.357 193.898 240.267 194.438 240.267 194.988ZM252.686 200.313V189.663H257.186C257.646 189.663 258.066 189.758 258.446 189.948C258.826 190.138 259.156 190.398 259.436 190.728C259.726 191.048 259.946 191.408 260.096 191.808C260.256 192.198 260.336 192.598 260.336 193.008C260.336 193.518 260.236 193.998 260.036 194.448C259.846 194.898 259.571 195.278 259.211 195.588C258.861 195.898 258.446 196.103 257.966 196.203L260.576 200.313H259.391L256.886 196.383H253.736V200.313H252.686ZM253.736 195.453H257.216C257.636 195.453 258.001 195.338 258.311 195.108C258.621 194.878 258.861 194.578 259.031 194.208C259.201 193.828 259.286 193.428 259.286 193.008C259.286 192.578 259.186 192.183 258.986 191.823C258.796 191.453 258.536 191.158 258.206 190.938C257.886 190.708 257.526 190.593 257.126 190.593H253.736V195.453ZM273.421 200.313V191.643L269.566 198.378H268.906L265.036 191.643V200.313H263.986V189.663H265.066L269.221 196.953L273.406 189.663H274.471V200.313H273.421ZM281.94 189.663H282.825L287.25 200.313H286.14L284.76 196.983H279.975L278.61 200.313H277.485L281.94 189.663ZM284.52 196.158L282.375 190.893L280.2 196.158H284.52ZM291.327 191.598V200.313H290.277V189.663H291.147L298.137 198.543V189.678H299.187V200.313H298.212L291.327 191.598ZM303.364 200.313V189.663H306.979C308.109 189.663 309.049 189.903 309.799 190.383C310.559 190.853 311.129 191.493 311.509 192.303C311.889 193.103 312.079 193.993 312.079 194.973C312.079 196.053 311.869 196.993 311.449 197.793C311.039 198.593 310.449 199.213 309.679 199.653C308.919 200.093 308.019 200.313 306.979 200.313H303.364ZM311.029 194.973C311.029 194.123 310.869 193.368 310.549 192.708C310.239 192.048 309.784 191.533 309.184 191.163C308.584 190.783 307.849 190.593 306.979 190.593H304.414V199.383H306.979C307.859 199.383 308.599 199.188 309.199 198.798C309.799 198.408 310.254 197.883 310.564 197.223C310.874 196.553 311.029 195.803 311.029 194.973ZM321.812 191.658C321.662 191.488 321.487 191.338 321.287 191.208C321.087 191.068 320.862 190.948 320.612 190.848C320.362 190.748 320.092 190.668 319.802 190.608C319.522 190.548 319.222 190.518 318.902 190.518C317.972 190.518 317.287 190.698 316.847 191.058C316.417 191.408 316.202 191.888 316.202 192.498C316.202 192.918 316.302 193.248 316.502 193.488C316.712 193.728 317.037 193.923 317.477 194.073C317.917 194.223 318.477 194.378 319.157 194.538C319.917 194.698 320.572 194.888 321.122 195.108C321.672 195.328 322.097 195.628 322.397 196.008C322.697 196.378 322.847 196.883 322.847 197.523C322.847 198.013 322.752 198.438 322.562 198.798C322.372 199.158 322.107 199.458 321.767 199.698C321.427 199.938 321.022 200.118 320.552 200.238C320.082 200.348 319.567 200.403 319.007 200.403C318.457 200.403 317.927 200.348 317.417 200.238C316.917 200.118 316.442 199.948 315.992 199.728C315.542 199.498 315.122 199.208 314.732 198.858L315.257 198.003C315.447 198.203 315.672 198.393 315.932 198.573C316.202 198.743 316.497 198.898 316.817 199.038C317.147 199.178 317.497 199.288 317.867 199.368C318.247 199.438 318.637 199.473 319.037 199.473C319.887 199.473 320.547 199.318 321.017 199.008C321.497 198.698 321.737 198.238 321.737 197.628C321.737 197.188 321.617 196.838 321.377 196.578C321.137 196.308 320.777 196.088 320.297 195.918C319.817 195.748 319.227 195.583 318.527 195.423C317.787 195.253 317.162 195.063 316.652 194.853C316.142 194.643 315.757 194.368 315.497 194.028C315.247 193.678 315.122 193.218 315.122 192.648C315.122 191.988 315.282 191.433 315.602 190.983C315.932 190.523 316.382 190.178 316.952 189.948C317.522 189.708 318.177 189.588 318.917 189.588C319.387 189.588 319.822 189.638 320.222 189.738C320.632 189.828 321.007 189.963 321.347 190.143C321.697 190.323 322.022 190.548 322.322 190.818L321.812 191.658Z" fill="#461990"/>
<path d="M128.617 332.517V323.847L124.762 330.582H124.102L120.232 323.847V332.517H119.182V321.867H120.262L124.417 329.157L128.602 321.867H129.667V332.517H128.617ZM140.991 331.587V332.517H133.836V321.867H140.856V322.797H134.886V326.637H140.091V327.522H134.886V331.587H140.991ZM144.476 332.517V321.867H148.091C149.221 321.867 150.161 322.107 150.911 322.587C151.671 323.057 152.241 323.697 152.621 324.507C153.001 325.307 153.191 326.197 153.191 327.177C153.191 328.257 152.981 329.197 152.561 329.997C152.151 330.797 151.561 331.417 150.791 331.857C150.031 332.297 149.131 332.517 148.091 332.517H144.476ZM152.141 327.177C152.141 326.327 151.981 325.572 151.661 324.912C151.351 324.252 150.896 323.737 150.296 323.367C149.696 322.987 148.961 322.797 148.091 322.797H145.526V331.587H148.091C148.971 331.587 149.711 331.392 150.311 331.002C150.911 330.612 151.366 330.087 151.676 329.427C151.986 328.757 152.141 328.007 152.141 327.177ZM163.854 331.587V332.517H156.699V321.867H163.719V322.797H157.749V326.637H162.954V327.522H157.749V331.587H163.854ZM166.43 327.117C166.43 326.467 166.54 325.832 166.76 325.212C166.99 324.582 167.32 324.012 167.75 323.502C168.18 322.982 168.71 322.572 169.34 322.272C169.97 321.962 170.685 321.807 171.485 321.807C172.435 321.807 173.245 322.027 173.915 322.467C174.595 322.897 175.095 323.452 175.415 324.132L174.59 324.642C174.36 324.172 174.07 323.802 173.72 323.532C173.37 323.252 172.995 323.052 172.595 322.932C172.205 322.812 171.815 322.752 171.425 322.752C170.785 322.752 170.22 322.882 169.73 323.142C169.24 323.392 168.825 323.732 168.485 324.162C168.155 324.582 167.905 325.057 167.735 325.587C167.565 326.107 167.48 326.637 167.48 327.177C167.48 327.767 167.58 328.332 167.78 328.872C167.98 329.412 168.26 329.892 168.62 330.312C168.98 330.722 169.4 331.052 169.88 331.302C170.37 331.542 170.9 331.662 171.47 331.662C171.87 331.662 172.28 331.592 172.7 331.452C173.12 331.312 173.51 331.097 173.87 330.807C174.24 330.517 174.535 330.142 174.755 329.682L175.625 330.132C175.405 330.662 175.065 331.112 174.605 331.482C174.145 331.852 173.63 332.132 173.06 332.322C172.5 332.512 171.95 332.607 171.41 332.607C170.68 332.607 170.01 332.452 169.4 332.142C168.79 331.822 168.26 331.402 167.81 330.882C167.37 330.352 167.03 329.762 166.79 329.112C166.55 328.452 166.43 327.787 166.43 327.117ZM178.918 332.517V321.867H179.968V332.517H178.918ZM185.189 323.802V332.517H184.139V321.867H185.009L191.999 330.747V321.882H193.049V332.517H192.074L185.189 323.802ZM204.38 331.587V332.517H197.225V321.867H204.245V322.797H198.275V326.637H203.48V327.522H198.275V331.587H204.38ZM217.464 332.592C216.754 332.592 216.094 332.442 215.484 332.142C214.874 331.832 214.344 331.417 213.894 330.897C213.444 330.377 213.094 329.797 212.844 329.157C212.604 328.517 212.484 327.857 212.484 327.177C212.484 326.457 212.604 325.777 212.844 325.137C213.094 324.487 213.439 323.912 213.879 323.412C214.319 322.912 214.839 322.517 215.439 322.227C216.039 321.937 216.694 321.792 217.404 321.792C218.454 321.792 219.309 322.007 219.969 322.437C220.629 322.867 221.129 323.427 221.469 324.117L220.659 324.657C220.319 323.997 219.864 323.512 219.294 323.202C218.724 322.892 218.089 322.737 217.389 322.737C216.799 322.737 216.264 322.862 215.784 323.112C215.314 323.362 214.909 323.697 214.569 324.117C214.229 324.537 213.969 325.012 213.789 325.542C213.619 326.072 213.534 326.622 213.534 327.192C213.534 327.792 213.634 328.362 213.834 328.902C214.034 329.432 214.319 329.907 214.689 330.327C215.059 330.737 215.484 331.062 215.964 331.302C216.454 331.532 216.979 331.647 217.539 331.647C218.189 331.647 218.804 331.487 219.384 331.167C219.964 330.837 220.519 330.332 221.049 329.652V330.762C220.039 331.982 218.844 332.592 217.464 332.592ZM220.884 328.092H218.514V327.282H221.769V332.517H220.884V328.092ZM232.582 331.587V332.517H225.427V321.867H232.447V322.797H226.477V326.637H231.682V327.522H226.477V331.587H232.582ZM237.117 323.802V332.517H236.067V321.867H236.937L243.927 330.747V321.882H244.977V332.517H244.002L237.117 323.802ZM256.309 331.587V332.517H249.154V321.867H256.174V322.797H250.204V326.637H255.409V327.522H250.204V331.587H256.309ZM259.795 332.517V321.867H264.295C264.755 321.867 265.175 321.962 265.555 322.152C265.935 322.342 266.265 322.602 266.545 322.932C266.835 323.252 267.055 323.612 267.205 324.012C267.365 324.402 267.445 324.802 267.445 325.212C267.445 325.722 267.345 326.202 267.145 326.652C266.955 327.102 266.68 327.482 266.32 327.792C265.97 328.102 265.555 328.307 265.075 328.407L267.685 332.517H266.5L263.995 328.587H260.845V332.517H259.795ZM260.845 327.657H264.325C264.745 327.657 265.11 327.542 265.42 327.312C265.73 327.082 265.97 326.782 266.14 326.412C266.31 326.032 266.395 325.632 266.395 325.212C266.395 324.782 266.295 324.387 266.095 324.027C265.905 323.657 265.645 323.362 265.315 323.142C264.995 322.912 264.635 322.797 264.235 322.797H260.845V327.657ZM274.351 321.867H275.236L279.661 332.517H278.551L277.171 329.187H272.386L271.021 332.517H269.896L274.351 321.867ZM276.931 328.362L274.786 323.097L272.611 328.362H276.931ZM282.687 332.517V321.867H283.737V331.587H289.887V332.517H282.687ZM300.087 331.587V332.517H292.932V321.867H299.952V322.797H293.982V326.637H299.187V327.522H293.982V331.587H300.087Z" fill="#461990"/>
<line x1="34.6986" y1="215.841" x2="384.294" y2="214.942" stroke="#461990" stroke-width="3"/>
<line x1="34.1132" y1="304.254" x2="383.708" y2="303.355" stroke="#461990" stroke-width="3"/>
<mask id="path-6-inside-1_6_230" fill="white">
<path d="M419 261.676C419 377.379 325.204 471.176 209.5 471.176C93.7963 471.176 0 377.379 0 261.676C0 145.972 93.7963 52.1756 209.5 52.1756C325.204 52.1756 419 145.972 419 261.676Z"/>
</mask>
<path d="M411 261.676C411 372.961 320.785 463.176 209.5 463.176V479.176C329.622 479.176 427 381.798 427 261.676H411ZM209.5 463.176C98.2146 463.176 8 372.961 8 261.676H-8C-8 381.798 89.3781 479.176 209.5 479.176V463.176ZM8 261.676C8 150.39 98.2146 60.1756 209.5 60.1756V44.1756C89.3781 44.1756 -8 141.554 -8 261.676H8ZM209.5 60.1756C320.785 60.1756 411 150.39 411 261.676H427C427 141.554 329.622 44.1756 209.5 44.1756V60.1756Z" fill="#461990" mask="url(#path-6-inside-1_6_230)"/>
<path fill-rule="evenodd" clip-rule="evenodd" d="M213.604 338.972C211.819 338.977 209.879 339.314 207.495 339.553C202.797 340.024 204.866 345.544 204.866 345.544C200.946 348.388 195.855 352.152 195.83 358.484C195.814 362.858 201.008 366.184 208.865 362.911C220.247 358.171 228.978 352.632 237.462 356.296C238.994 356.958 240.976 357.602 242.696 357.599C253.868 357.582 262.535 348.454 269.377 349.929C274.069 349.443 291.261 358.849 286.641 368.142C275.901 389.744 239.213 366.889 238.781 371.15L251.365 378.919C251.253 378.222 286.078 388.248 289.78 368.193C292.188 355.151 277.274 348.323 272.193 346.98C265.79 346.031 257.278 348.749 257.278 348.749C253.031 348.891 250.432 345.732 247.953 342.331C248.702 345.271 248.195 348.087 251.739 351.296C251.739 351.296 248.771 351.419 245.826 350.279C242.881 349.139 241.435 345.638 241.435 345.638C242.571 349.642 243.912 353.078 246.192 353.946C239.106 353.782 233.674 349.406 228.732 343.767C229.849 346.528 231.114 349.153 232.748 351.467C225.186 350.645 218.379 355.578 207.921 359.347C194.035 363.664 198.985 353.004 206.109 347.758C206.109 347.758 209.149 352.369 210.89 348.792C212.918 344.627 219.006 340.967 220.181 341.34C217.844 339.482 215.847 338.966 213.604 338.972ZM220.19 341.34C220.243 341.381 220.29 341.424 220.343 341.468C220.312 341.408 220.264 341.365 220.19 341.34Z" fill="#461990"/>
<path d="M209.853 413.268C209.644 413.162 212.737 411.153 212.114 410.32C208.726 407.572 205.549 406.071 203.833 413.166C206.483 410.552 208.136 412.041 209.853 413.268Z" fill="#461990"/>
<path d="M208.438 425.126C208.895 425.634 207.58 418.202 205.372 420.511C201.261 423.212 201.48 425.999 204.86 428.85C205.383 424.458 206.92 424.835 208.438 425.126Z" fill="#461990"/>
<path d="M221.093 428.339C221.403 427.564 219.871 426.982 218.393 426.944C216.916 426.906 215.493 427.413 216.023 428.815C217.157 431.731 218.428 432.936 219.227 433.584C219.814 433.132 220.917 431.248 221.093 428.339Z" fill="#461990"/>
<path d="M228.933 424.096C229.058 422.175 223.474 424.179 224.672 424.818C225.869 425.457 226.71 426.398 225.325 429.23C230.011 428.195 228.807 426.016 228.933 424.096Z" fill="#461990"/>
<path d="M242.634 391.298L233.568 379.825L231.894 382.704C226.998 387.193 221.48 389.278 216.104 397.138C215.02 396.999 213.932 396.747 212.09 397.949C209.703 399.507 209.15 402.857 209.194 405.506C210.319 401.051 214.655 399.452 218.882 399.784C219.462 401.515 220.604 403.492 222.492 405.775C223.833 407.393 225.456 410.181 219.222 414.413C218.519 414.647 217.29 415.084 215.532 414.711C214.951 413.356 214.882 412.292 214.954 411.307C213.999 406.702 207.039 410.796 209.601 414.874C212.782 417.463 211.857 418.252 208.616 418.028C206.99 418.368 205.357 418.719 203.118 419.84C203.105 420.39 203.115 420.915 203.35 421.201C206.871 420.688 207.365 424.852 207.365 425.78C207.842 425.876 208.299 425.994 209.02 425.832C212.556 423.275 212.925 423.397 213.878 423.448C215.318 423.929 213.391 428.928 216.247 430.42C217.922 426.665 220.982 428.745 221.45 430.165C222.143 429.089 222.054 427.376 221.857 425.575C222.27 421.554 224.145 423.725 224.966 425.392C226.728 422.936 227.725 423.787 228.994 425.574C229.867 425.674 229.956 425.538 230.311 425.147L230.721 422.302C230.776 418.499 233.446 418.42 234.118 421.765C234.569 421.247 235.166 420.944 235.159 420.421C237.414 417.191 240.673 416.318 240.639 414.799C241.651 412.154 239.746 406.087 243.698 409.146C242.907 406.513 240.439 407.33 241.044 404.53C241.3 402.588 239.492 401.806 237.162 401.316C232.295 399.725 235.078 398.101 236.167 396.849L240.277 394.006L242.634 391.298Z" fill="#461990"/>
<path d="M135.161 356.4C135.462 357.163 134.694 357.324 132.146 357.917C130.823 356.329 130.231 354.152 127.146 353.759C131.211 350.689 134.784 351.687 135.161 356.4Z" fill="#461990"/>
<path d="M145.127 360.853C145.182 362.543 141.913 359.022 141.745 358.133C143.814 357.692 145.431 355.388 143.598 353.07C148.932 354.587 147.583 360.23 145.127 360.853Z" fill="#461990"/>
<path d="M129.68 370.475C132.119 370.885 130.827 364.527 127.398 365.167C123.968 365.807 122.735 368.534 124.427 374.043C125.347 370.922 127.241 370.064 129.68 370.475Z" fill="#461990"/>
<path d="M137.2 381.549C136.984 378.139 132.912 374.906 132.738 377.241C131.655 378.605 130.811 380.601 127.423 378.462C127.676 385.813 135.471 382.878 137.2 381.549Z" fill="#461990"/>
<path d="M163.423 399.287L167.529 383.215L164.623 380.048C158.807 377.868 152.334 374.158 145.344 369.247C140.955 366.784 144.083 363.443 146.143 363.146C146.706 362.361 146.335 361.537 145.799 360.599C144.356 359.118 143.518 358.339 142.842 358.124C141.996 357.879 140.909 356.95 141.375 359.823C141.729 361.854 139.672 366.302 137.163 361.804C136.893 360.246 136.828 358.548 136.905 357.32C136.489 356.578 136.559 355.319 135.34 355.429C133.416 356.185 131.997 356.614 130.974 356.793C130.622 358.632 130.235 360.267 133.553 360.59C133.785 361.886 134.246 363.367 133.223 363.639C130.727 363.518 127.459 361.631 125.988 365.773C130.48 366.284 130.159 369.408 128.594 370.537C129.042 371.86 129.83 372.161 130.957 371.439C134.395 369.684 134.561 370.465 135.345 370.904C135.977 373.204 135.686 374.964 132.429 374.991C131.663 375.298 131.378 376.492 131.887 377.839C135.647 378.592 135.718 379.838 136.117 381.66C135.838 382.676 138.724 383.884 138.049 379.327C138.449 376.899 140.589 379.698 140.914 381.518C141.577 385.24 139.785 387.883 133.281 389.41C137.87 390.403 144.131 387.014 144.258 385.069C144.597 386.97 148.307 387.69 146.825 389.334C145.327 390.996 145.605 396.373 147.905 396.192C146.498 392.521 148.675 391.5 150.704 391.802C160.515 393.262 154.614 396.358 152.849 397.505L159.359 399.122L163.423 399.287Z" fill="#461990"/>
<path fill-rule="evenodd" clip-rule="evenodd" d="M224.367 386.579C227.029 385.421 229.743 384.094 231.728 385.199C232.45 387.191 233.423 388.405 236.09 384.344L231.675 381.57L225.52 383.852C224.062 385.663 223.868 386.412 224.367 386.579Z" fill="#461990"/>
<path d="M131.003 416.772C127.245 419.555 126.856 424.525 131.72 426.017C130.641 422.923 131.464 420.867 133.822 419.648" fill="#461990"/>
<path d="M141.175 422.134C139.397 427.644 141.544 430.516 147.822 430.611C145.329 428.526 145.109 426.149 146.163 423.608" fill="#461990"/>
<path d="M157.721 418.457C159.421 423.111 157.213 424.882 154.044 425.944C155.34 423.196 154.949 421.181 153.605 419.578" fill="#461990"/>
<path d="M140.963 401.993C136.964 397.927 132.329 398.669 130.975 403.477C134.528 402.295 135.558 403.087 135.816 404.484" fill="#461990"/>
<path d="M266.711 416.581C263.726 419.098 261.713 421.856 265.5 426.062C265.653 422.854 267.181 420.69 269.908 419.437" fill="#461990"/>
<path d="M274.469 422.067C271.777 424.815 271.334 427.359 274.671 429.562C275.327 427.756 274.947 425.504 278.709 425.036" fill="#461990"/>
<path d="M285.664 423.565C288.38 424.601 288.907 426.926 289.178 429.402C293.383 427.171 292.076 423.901 291.831 420.831" fill="#461990"/>
<path d="M289.223 411.929C291.505 411.207 293.355 411.549 294.339 414.019C295.899 409.466 293.199 407.967 289.104 407.47" fill="#461990"/>
<path d="M190.541 408.931C192.893 408.841 194.334 404.862 196.282 402.68C198.327 402.885 200.103 402.876 201.047 401.335C196.291 400.9 203.239 395.221 204.226 394.078C209.912 387.497 221.087 385.125 231.848 382.45C238.355 384.162 239.14 394.634 242.208 399.345C243.43 399.7 255.135 405.532 256.503 409.793C257.391 405.47 245.071 398.578 246.364 398.928C247.658 399.278 254.238 401.334 255.551 401.54C260.802 402.365 266.145 402.512 271.327 403.768C272.639 405.506 274.078 407.155 275.76 408.63C275.548 409.917 275.877 411.079 276.282 412.223C273.999 412.889 272.472 411.857 268.9 415.416L266.45 415.721C264.848 415.637 264.9 416.375 265.455 417.362C266.287 417.042 267.793 418.359 269.704 420.663C275.563 416.806 275.891 418.043 276.644 418.621C274.09 420.451 272.746 419.945 273.64 422.881C276.041 422.334 277.051 424.47 278.312 426.122C279.466 426.181 280.704 426.72 281.432 424.375C281.996 421.33 284.622 422.217 285.134 424.938C290.091 420.566 290.749 421.823 292.24 421.99C293.635 420.438 292.89 419.378 291.812 418.394C284.298 415.261 289.468 413.094 290.808 412.726C289.104 411.741 289.058 409.486 290.441 406.138C289.354 406.12 288.592 405.915 285.968 406.783C282.087 405.14 285.314 404.796 285.749 403.941C284.317 399.05 286.313 397.833 284.356 396.101C281.057 393.182 272.198 391.931 275.18 388.901C272.362 390.361 265.165 393.113 256.105 382.732C252.334 377.852 242.557 369.623 235.768 370.048C224.512 371.708 218.882 370.124 200.473 375.907L171.123 377.806L164.102 378.616C164.608 391.727 161.626 398.382 157.383 401.675C157.173 401.838 154.396 403.205 154.178 403.348C149.936 406.136 146.188 408.899 144.391 408.396C142.358 408.168 141.787 407.231 142.241 405.797C142.443 404.541 142.56 403.305 142.143 402.192C141.794 401.663 141.857 400.806 140.599 401C139.457 403.459 137.479 404.193 135.005 403.907C134.398 404.195 134.034 405.103 134.591 406.102C138.326 408.258 137.576 408.669 137.96 411.8C135.897 412.432 133.841 413.065 133.397 414.394C132.252 414.317 131.078 414.199 130.185 414.482C129.764 415.533 129.588 416.528 129.792 417.436C133.862 418.916 132.674 419.664 133.283 420.662C135.537 420.094 137.32 418.228 139.329 416.984C142.491 415.695 142.355 418.251 141.668 419.577C140.947 419.727 140.25 420.757 139.549 421.629C139.139 422.649 139.313 423.05 139.503 423.434C145.213 422.734 144.517 424.194 146.159 424.865C148.931 425.356 147.559 423.723 147.809 422.921C147.067 420.416 148.222 420.252 148.653 419.196C149.493 418.452 150.945 417.415 150.949 420.177C151.473 422.529 152.8 422.085 154.11 421.704C153.621 418.931 155.006 418.457 157.643 419.518C158.145 419.239 158.53 418.776 158.639 417.877C156.973 414.427 160.278 414.478 162.821 415.199C164.578 415.697 166.734 416.629 162.63 418.622C168.586 418.464 167.267 414.394 167.496 413.267C169.247 414.94 171.956 412.753 173.24 412.444C174.299 412.19 180.09 413.783 174.725 416.904C177.15 416.391 178.785 416.388 181.745 412.306C183.477 409.561 189.571 404.655 190.541 408.931Z" fill="#461990"/>
<path fill-rule="evenodd" clip-rule="evenodd" d="M164.214 371.489C164.203 370.406 163.89 369.693 164.193 368.227C165.118 369.527 166.507 369.943 167.703 370.727" fill="#461990"/>
<path fill-rule="evenodd" clip-rule="evenodd" d="M174.15 360.926C165.306 362.444 159.816 371.98 150.722 366.104C156.889 375.871 164.794 364.848 175.124 364.307L174.15 360.926Z" fill="#461990"/>
<path fill-rule="evenodd" clip-rule="evenodd" d="M160.189 362.385C160.484 363.692 161.378 364.596 162.736 365.187C161.921 363.592 163.14 362.473 163.821 361.229" fill="#461990"/>
<path fill-rule="evenodd" clip-rule="evenodd" d="M169.912 394.658L169.391 398.584L172.325 396.309C168.37 405.427 174.18 406.207 180.289 406.732C178.014 402.016 183.228 398.214 184.606 392.902C183.223 398.141 184.527 401.085 192.611 398.234C184.274 396.4 192.88 391.667 189.475 385.85C191.24 389.111 193.951 387.285 196.363 387.069C188.655 384.82 192.691 379.681 192.94 375.473L189.328 368.276C191.106 372.944 193.993 371.057 196.658 370.487C191.198 369.381 194.841 362.112 188.213 358.899C190.624 359.862 193.069 361.209 195.281 359.897C190.035 359.239 191.658 353.888 186.863 352.66C189.567 352.808 191.197 351.859 193.188 351.279C190.897 350.897 188.819 351.497 186.263 349.886L182.272 346.22L172.425 346.101C169.982 346.812 167.656 347.759 165.749 349.555C163.974 350.54 161.699 351.28 161.86 353.217C158.073 353.992 150.921 358.226 156.447 357.757C156.703 361.724 157.686 362.808 159.809 362.74C164.574 363.53 165.576 360.05 169.068 359.085C176.924 361.159 173.824 366.304 171.547 368.436C169.072 370.754 164.512 369.7 164.512 369.7C163.082 371.888 163.272 373.117 165.081 373.387C167.304 375.208 167.947 373.491 169.082 372.877C176.879 372.707 175.684 368.766 178.433 366.479C176.392 369.781 179.503 373.94 171.141 376.058C166.822 377.153 167.251 375.5 163.173 376.708C159.095 377.916 158.07 380.641 154.828 380.889C151.929 381.111 147.923 381.443 150.605 375.095C144.847 381.139 151.092 386.181 158.812 383.468C151.875 385.982 147.572 389.223 141.462 385.622C150.008 395.799 153.9 388.534 163.114 387.52C153.984 389.101 155.291 396.57 145.352 396.208C148.217 399.848 151.28 399.08 155.299 397.848C153.826 399.34 152.659 402.667 149.469 402.569C151.31 405.233 156.165 403.895 160.353 402.734C165.118 401.414 167.422 397.869 169.912 394.658Z" fill="#461990"/>
<path fill-rule="evenodd" clip-rule="evenodd" d="M176.431 349.31C175.513 345.653 178.885 344.852 181.326 343.432C181.26 345.863 181.836 348.949 180.33 349.911" fill="#461990"/>
<path fill-rule="evenodd" clip-rule="evenodd" d="M162.366 353.487C163.691 354.88 164.459 353.705 165.35 353.093C167.467 350.119 169.327 351.913 171.241 352.705" fill="#461990"/>
<path fill-rule="evenodd" clip-rule="evenodd" d="M164.081 354.341C165.248 354.885 165.932 355.061 166.888 354.627C168.45 353.973 168.833 352.973 169.593 352.945C169.453 352.3 169.249 351.692 168.169 351.588C165.765 352.395 165.97 353.226 164.081 354.341Z" fill="#461990"/>
<path d="M179.628 351.644C181.346 351.827 182.251 356.004 179.561 356.572C180.299 357.112 181.469 357.844 182.598 356.572C182.742 358.322 180.833 361.022 177.14 361.299C177.98 361.668 179.292 361.836 180.062 361.668C178.723 362.697 180.476 367.038 180.396 368.038C180.285 369.404 179.291 371.005 177.992 371.223C180.32 371.623 181.654 369.559 182.005 368.05C182.473 366.037 181.004 363.692 182.498 362.171" fill="#461990"/>
<path d="M200.721 25.2744C200.721 25.2744 207.119 18.9274 216.636 20.4944C216.636 16.7124 216.579 14.5982 216.584 10.8293C216.484 7.3756 204.13 -5.03134 200.3 4.57853C200.405 11.5647 200.721 25.2744 200.721 25.2744Z" fill="#461990"/>
<path d="M201.955 45.3891C201.955 45.3891 207.208 38.9808 215.612 42.8678C215.927 49.066 214.141 94.3448 214.141 94.3448C214.141 94.3448 206.682 96.656 203.321 99.1773C202.795 85.205 201.955 45.3891 201.955 45.3891Z" fill="#461990"/>
<path d="M203.741 115.671C203.741 115.671 210.149 111.364 213.721 110.628C213.511 119.348 212.671 138.153 212.671 138.153L204.791 143.616L203.741 115.671Z" fill="#461990"/>
<path d="M205.527 157.063L211.935 152.545C211.935 152.545 211.725 169.354 209.834 180.91C207.838 186.793 206.682 180.175 205.527 157.063Z" fill="#461990"/>
<path d="M202.405 119.845L202.825 131.296C202.825 131.296 189.063 128.88 188.958 117.639C188.853 106.398 208.288 98.6238 208.288 98.6238C208.288 98.6238 223.416 93.3711 222.68 88.5385C221.945 83.706 216.377 83.9161 216.377 83.9161L216.692 70.5741C216.692 70.5741 226.672 73.5156 232.24 79.2937C237.808 85.0717 234.972 92.4256 234.972 92.4256C234.972 92.4256 231.085 101.46 218.583 106.818C206.082 112.176 200.829 115.012 200.724 117.429C200.619 119.845 202.405 119.845 202.405 119.845Z" fill="#461990"/>
<path d="M205.317 173.031C205.317 173.031 203.216 159.059 204.266 157.168C205.002 152.755 226.118 146.557 226.538 134.266C226.28 126.92 214.877 123.445 214.877 123.445L214.141 135.106C214.141 135.106 216.453 134.476 216.453 136.157C216.453 137.838 203.531 146.662 200.694 148.868C197.858 151.075 196.492 154.226 196.492 157.273C196.492 160.319 197.227 167.253 205.317 173.031Z" fill="#461990"/>
<path d="M200.291 64.4154L200.922 79.3333C200.922 79.3333 182.313 73.9411 182.313 56.0384C182.313 38.1357 201.701 26.4729 202.593 25.9529C203.484 25.4329 209.427 22.0901 214.181 22.5358C218.936 22.9815 221.09 24.5415 222.501 26.1015C223.913 27.6614 227.701 32.8614 229.335 36.7985C230.97 40.7356 229.781 42.8899 229.484 43.1128C229.187 43.3356 228.815 44.0785 226.141 43.7813C223.467 43.4842 217.673 41.7756 215.816 41.2556C213.958 40.7356 212.844 39.6214 209.947 39.6214C207.05 39.6214 200.587 43.1128 198.21 47.867C196.427 50.7641 193.235 58.9012 200.291 64.4154Z" fill="#461990"/>
<path d="M200.721 25.2744L200.221 25.2859L200.247 26.448L201.073 25.6294L200.721 25.2744ZM216.636 20.4944L216.555 20.9877L217.136 21.0834L217.136 20.4944L216.636 20.4944ZM216.584 10.8293L217.084 10.8299L217.084 10.8224L217.084 10.8148L216.584 10.8293ZM200.3 4.57853L199.836 4.39344L199.799 4.4862L199.8 4.58604L200.3 4.57853ZM201.955 45.3891L201.568 45.0722L201.451 45.215L201.455 45.3997L201.955 45.3891ZM215.612 42.8678L216.111 42.8424L216.096 42.5408L215.822 42.414L215.612 42.8678ZM214.141 94.3448L214.289 94.8224L214.627 94.7178L214.641 94.3645L214.141 94.3448ZM203.321 99.1773L202.821 99.1961L202.857 100.15L203.621 99.5773L203.321 99.1773ZM203.741 115.671L203.462 115.256L203.231 115.411L203.241 115.69L203.741 115.671ZM213.721 110.628L214.221 110.64L214.236 110.012L213.62 110.139L213.721 110.628ZM212.671 138.153L212.955 138.564L213.159 138.423L213.17 138.175L212.671 138.153ZM204.791 143.616L204.292 143.634L204.326 144.547L205.076 144.027L204.791 143.616ZM205.527 157.063L205.239 156.654L205.014 156.813L205.027 157.088L205.527 157.063ZM211.935 152.545L212.435 152.552L212.447 151.573L211.647 152.137L211.935 152.545ZM209.834 180.91L210.308 181.071L210.321 181.032L210.328 180.991L209.834 180.91ZM202.405 119.845L202.904 119.827L202.887 119.345L202.405 119.345L202.405 119.845ZM202.825 131.296L202.739 131.788L203.347 131.895L203.325 131.278L202.825 131.296ZM188.958 117.639L188.458 117.643L188.458 117.643L188.958 117.639ZM208.288 98.6238L208.124 98.1515L208.113 98.1553L208.102 98.1596L208.288 98.6238ZM222.68 88.5385L223.175 88.4633L223.175 88.4633L222.68 88.5385ZM216.377 83.9161L215.877 83.9043L215.865 84.4358L216.396 84.4158L216.377 83.9161ZM216.692 70.5741L216.834 70.0945L216.208 69.9101L216.192 70.5623L216.692 70.5741ZM232.24 79.2937L231.88 79.6406L231.88 79.6406L232.24 79.2937ZM234.972 92.4256L235.431 92.6232L235.435 92.6144L235.438 92.6055L234.972 92.4256ZM218.583 106.818L218.386 106.359L218.386 106.359L218.583 106.818ZM200.724 117.429L200.224 117.407L200.224 117.407L200.724 117.429ZM205.317 173.031L205.026 173.438L205.987 174.124L205.811 172.957L205.317 173.031ZM204.266 157.168L204.703 157.411L204.745 157.335L204.759 157.25L204.266 157.168ZM226.538 134.266L227.038 134.283L227.038 134.266L227.038 134.248L226.538 134.266ZM214.877 123.445L215.022 122.967L214.418 122.782L214.378 123.414L214.877 123.445ZM214.141 135.106L213.642 135.075L213.598 135.773L214.273 135.589L214.141 135.106ZM200.694 148.868L200.387 148.474L200.387 148.474L200.694 148.868ZM200.291 64.4154L200.791 64.3943L200.781 64.1637L200.599 64.0215L200.291 64.4154ZM200.922 79.3333L200.782 79.8135L201.45 80.0071L201.421 79.3122L200.922 79.3333ZM202.593 25.9529L202.341 25.521L202.341 25.521L202.593 25.9529ZM214.181 22.5358L214.135 23.0336L214.135 23.0336L214.181 22.5358ZM222.501 26.1015L222.872 25.766L222.872 25.766L222.501 26.1015ZM229.335 36.7985L228.874 36.9902L228.874 36.9902L229.335 36.7985ZM229.484 43.1128L229.184 42.7128L229.184 42.7128L229.484 43.1128ZM226.141 43.7813L226.196 43.2844L226.196 43.2844L226.141 43.7813ZM215.816 41.2556L215.681 41.7371L215.681 41.7371L215.816 41.2556ZM198.21 47.867L198.636 48.1291L198.647 48.1103L198.657 48.0906L198.21 47.867ZM200.721 25.2744C201.073 25.6294 201.073 25.6295 201.072 25.6296C201.072 25.6296 201.072 25.6297 201.072 25.6297C201.072 25.6297 201.072 25.6296 201.073 25.6294C201.073 25.629 201.074 25.6283 201.075 25.6272C201.077 25.6249 201.081 25.6212 201.086 25.616C201.097 25.6057 201.114 25.5896 201.137 25.5683C201.182 25.5255 201.252 25.4616 201.345 25.3799C201.53 25.2165 201.808 24.9823 202.172 24.7048C202.901 24.1496 203.971 23.4231 205.332 22.7442C208.055 21.3866 211.927 20.2257 216.555 20.9877L216.718 20.001C211.828 19.1961 207.742 20.4252 204.886 21.8493C203.458 22.5613 202.334 23.3237 201.566 23.9095C201.181 24.2026 200.885 24.452 200.684 24.6295C200.583 24.7183 200.506 24.7892 200.453 24.8387C200.426 24.8634 200.406 24.8828 200.392 24.8964C200.385 24.9032 200.379 24.9086 200.376 24.9124C200.374 24.9143 200.372 24.9159 200.371 24.9171C200.37 24.9176 200.37 24.9181 200.369 24.9185C200.369 24.9187 200.369 24.9189 200.369 24.919C200.369 24.9192 200.368 24.9194 200.721 25.2744ZM217.136 20.4944C217.136 18.6008 217.122 17.1246 217.108 15.6523C217.095 14.1801 217.081 12.7116 217.084 10.8299L216.084 10.8287C216.081 12.7159 216.095 14.1889 216.108 15.6616C216.122 17.1341 216.136 18.606 216.136 20.4944L217.136 20.4944ZM217.084 10.8148C217.068 10.2629 216.817 9.60663 216.451 8.93566C216.078 8.25018 215.552 7.49356 214.922 6.72667C213.662 5.19388 211.951 3.58357 210.113 2.38614C208.289 1.1972 206.268 0.369767 204.407 0.516925C203.464 0.591443 202.569 0.916057 201.78 1.55867C200.994 2.19822 200.338 3.13301 199.836 4.39344L200.765 4.76361C201.22 3.62157 201.787 2.84192 202.411 2.33408C203.031 1.8293 203.73 1.57357 204.485 1.51381C206.021 1.39243 207.813 2.08074 209.568 3.22401C211.309 4.3588 212.945 5.89717 214.15 7.36173C214.751 8.09352 215.237 8.79773 215.573 9.41428C215.917 10.0453 216.075 10.5322 216.084 10.8438L217.084 10.8148ZM199.8 4.58604C199.853 8.08088 199.958 13.2563 200.05 17.557C200.096 19.7075 200.139 21.6397 200.17 23.0343C200.185 23.7315 200.198 24.2944 200.207 24.683C200.211 24.8773 200.215 25.028 200.217 25.1301C200.218 25.1812 200.219 25.2201 200.22 25.2463C200.22 25.2594 200.22 25.2693 200.22 25.2759C200.221 25.2792 200.221 25.2817 200.221 25.2834C200.221 25.2842 200.221 25.2848 200.221 25.2852C200.221 25.2855 200.221 25.2856 200.221 25.2857C200.221 25.2858 200.221 25.2859 200.721 25.2744C201.22 25.2629 201.22 25.2628 201.22 25.2627C201.22 25.2626 201.22 25.2625 201.22 25.2623C201.22 25.2619 201.22 25.2612 201.22 25.2604C201.22 25.2587 201.22 25.2562 201.22 25.2529C201.22 25.2463 201.22 25.2365 201.22 25.2234C201.219 25.1972 201.218 25.1583 201.217 25.1073C201.215 25.0052 201.211 24.8545 201.207 24.6603C201.198 24.2718 201.185 23.7091 201.17 23.0119C201.138 21.6176 201.096 19.6857 201.05 17.5356C200.958 13.2349 200.853 8.06233 200.8 4.57101L199.8 4.58604ZM201.955 45.3891C202.342 45.7061 202.341 45.7063 202.341 45.7064C202.341 45.7064 202.341 45.7066 202.341 45.7066C202.341 45.7067 202.341 45.7067 202.341 45.7066C202.341 45.7063 202.342 45.7057 202.343 45.7048C202.344 45.7028 202.347 45.6994 202.351 45.6945C202.36 45.6848 202.373 45.6693 202.391 45.6487C202.428 45.6074 202.484 45.5454 202.559 45.4666C202.709 45.3091 202.936 45.085 203.234 44.8266C203.832 44.3089 204.714 43.6573 205.845 43.1229C208.095 42.0608 211.353 41.4488 215.402 43.3216L215.822 42.414C211.467 40.3998 207.897 41.0484 205.418 42.2187C204.186 42.8005 203.229 43.5081 202.58 44.0705C202.255 44.3521 202.005 44.5984 201.835 44.7761C201.751 44.865 201.686 44.9368 201.641 44.9875C201.619 45.0129 201.601 45.033 201.589 45.0472C201.583 45.0544 201.578 45.0601 201.575 45.0642C201.573 45.0663 201.572 45.068 201.571 45.0694C201.57 45.07 201.57 45.0706 201.569 45.071C201.569 45.0713 201.569 45.0716 201.569 45.0717C201.568 45.0719 201.568 45.0722 201.955 45.3891ZM215.113 42.8932C215.269 45.9649 214.903 58.8033 214.495 70.9138C214.292 76.9602 214.078 82.8131 213.916 87.1544C213.835 89.3251 213.766 91.1178 213.718 92.3679C213.694 92.9929 213.675 93.4822 213.662 93.8153C213.655 93.9818 213.65 94.1093 213.647 94.1951C213.645 94.238 213.644 94.2705 213.643 94.2923C213.643 94.3032 213.642 94.3114 213.642 94.3169C213.642 94.3196 213.642 94.3217 213.642 94.323C213.642 94.3237 213.642 94.3242 213.642 94.3246C213.642 94.3249 213.642 94.3251 214.141 94.3448C214.641 94.3645 214.641 94.3643 214.641 94.364C214.641 94.3636 214.641 94.3631 214.641 94.3624C214.641 94.3611 214.641 94.359 214.641 94.3562C214.641 94.3507 214.642 94.3425 214.642 94.3316C214.643 94.3098 214.644 94.2773 214.646 94.2343C214.649 94.1484 214.654 94.0209 214.661 93.8543C214.674 93.5211 214.693 93.0316 214.717 92.4064C214.765 91.156 214.834 89.3629 214.915 87.1919C215.078 82.8497 215.291 76.9955 215.495 70.9475C215.901 58.8691 216.27 45.9689 216.111 42.8424L215.113 42.8932ZM214.141 94.3448C213.993 93.8672 213.993 93.8672 213.993 93.8673C213.993 93.8673 213.993 93.8673 213.993 93.8674C213.993 93.8675 213.992 93.8676 213.992 93.8677C213.991 93.8681 213.989 93.8685 213.987 93.8691C213.983 93.8703 213.978 93.872 213.97 93.8743C213.956 93.8789 213.934 93.8857 213.906 93.8947C213.849 93.9125 213.767 93.9389 213.66 93.9733C213.448 94.0421 213.141 94.1431 212.762 94.272C212.005 94.5298 210.961 94.9001 209.81 95.3499C207.524 96.2433 204.761 97.4719 203.021 98.7773L203.621 99.5773C205.242 98.3614 207.89 97.1738 210.174 96.2813C211.308 95.8381 212.338 95.473 213.085 95.2186C213.458 95.0915 213.76 94.9922 213.968 94.9248C214.072 94.891 214.153 94.8653 214.208 94.8481C214.235 94.8395 214.255 94.833 214.269 94.8287C214.276 94.8265 214.281 94.8249 214.285 94.8239C214.286 94.8234 214.288 94.823 214.288 94.8227C214.289 94.8226 214.289 94.8225 214.289 94.8225C214.289 94.8224 214.289 94.8224 214.289 94.8224C214.289 94.8224 214.289 94.8224 214.141 94.3448ZM203.82 99.1586C203.558 92.1766 203.216 78.7332 202.941 67.0318C202.803 61.1819 202.681 55.7685 202.594 51.8177C202.551 49.8422 202.516 48.2324 202.492 47.1165C202.48 46.5585 202.471 46.124 202.464 45.829C202.461 45.6815 202.459 45.5689 202.457 45.4932C202.456 45.4553 202.456 45.4266 202.455 45.4075C202.455 45.3979 202.455 45.3906 202.455 45.3858C202.455 45.3834 202.455 45.3816 202.455 45.3804C202.455 45.3798 202.455 45.3793 202.455 45.379C202.455 45.3787 202.455 45.3786 201.955 45.3891C201.455 45.3997 201.455 45.3998 201.455 45.4001C201.455 45.4004 201.455 45.4009 201.455 45.4015C201.455 45.4027 201.455 45.4045 201.455 45.4069C201.455 45.4118 201.455 45.419 201.456 45.4286C201.456 45.4478 201.457 45.4765 201.457 45.5144C201.459 45.5901 201.461 45.7028 201.465 45.8503C201.471 46.1454 201.48 46.58 201.492 47.138C201.516 48.2541 201.551 49.8641 201.595 51.8397C201.682 55.7909 201.803 61.2048 201.941 67.0554C202.217 78.755 202.558 92.2058 202.821 99.1961L203.82 99.1586ZM203.741 115.671C204.02 116.086 204.02 116.086 204.02 116.086C204.02 116.086 204.02 116.086 204.02 116.086C204.02 116.086 204.02 116.086 204.021 116.085C204.021 116.085 204.022 116.084 204.024 116.083C204.027 116.081 204.031 116.078 204.037 116.074C204.049 116.066 204.067 116.055 204.09 116.039C204.137 116.008 204.207 115.962 204.297 115.903C204.477 115.785 204.739 115.615 205.065 115.409C205.717 114.997 206.623 114.439 207.639 113.86C209.692 112.688 212.124 111.468 213.822 111.118L213.62 110.139C211.747 110.524 209.188 111.825 207.144 112.991C206.111 113.58 205.192 114.146 204.531 114.564C204.2 114.773 203.934 114.946 203.749 115.066C203.657 115.126 203.586 115.173 203.537 115.206C203.513 115.222 203.494 115.234 203.482 115.243C203.475 115.247 203.471 115.25 203.467 115.252C203.466 115.254 203.464 115.254 203.463 115.255C203.463 115.255 203.463 115.256 203.462 115.256C203.462 115.256 203.462 115.256 203.462 115.256C203.462 115.256 203.462 115.256 203.741 115.671ZM213.221 110.616C213.116 114.971 212.854 121.849 212.617 127.64C212.499 130.535 212.388 133.158 212.306 135.057C212.265 136.006 212.231 136.775 212.208 137.306C212.196 137.571 212.187 137.777 212.181 137.917C212.177 137.987 212.175 138.04 212.173 138.076C212.173 138.094 212.172 138.108 212.172 138.117C212.171 138.121 212.171 138.125 212.171 138.127C212.171 138.128 212.171 138.129 212.171 138.13C212.171 138.13 212.171 138.13 212.171 138.13C212.171 138.13 212.171 138.13 212.671 138.153C213.17 138.175 213.17 138.175 213.17 138.175C213.17 138.175 213.17 138.174 213.17 138.174C213.17 138.174 213.17 138.173 213.17 138.172C213.17 138.169 213.17 138.166 213.171 138.161C213.171 138.152 213.172 138.139 213.173 138.121C213.174 138.085 213.176 138.032 213.18 137.962C213.186 137.822 213.195 137.615 213.207 137.35C213.23 136.818 213.264 136.05 213.305 135.1C213.387 133.2 213.498 130.577 213.617 127.681C213.853 121.89 214.116 115.005 214.221 110.64L213.221 110.616ZM212.386 137.742L204.507 143.205L205.076 144.027L212.955 138.564L212.386 137.742ZM205.291 143.597L204.241 115.652L203.241 115.69L204.292 143.634L205.291 143.597ZM205.815 157.471L212.223 152.954L211.647 152.137L205.239 156.654L205.815 157.471ZM211.935 152.545C211.435 152.539 211.435 152.539 211.435 152.539C211.435 152.539 211.435 152.54 211.435 152.54C211.435 152.54 211.435 152.541 211.435 152.542C211.435 152.544 211.435 152.547 211.435 152.551C211.435 152.559 211.435 152.571 211.435 152.587C211.434 152.619 211.433 152.666 211.432 152.729C211.43 152.854 211.427 153.04 211.423 153.28C211.413 153.761 211.398 154.462 211.373 155.338C211.324 157.092 211.239 159.55 211.094 162.369C210.806 168.011 210.282 175.08 209.341 180.829L210.328 180.991C211.278 175.185 211.804 168.071 212.093 162.42C212.238 159.592 212.323 157.126 212.373 155.366C212.397 154.487 212.413 153.783 212.422 153.3C212.427 153.058 212.43 152.871 212.432 152.745C212.433 152.682 212.434 152.633 212.434 152.601C212.435 152.585 212.435 152.572 212.435 152.564C212.435 152.56 212.435 152.557 212.435 152.555C212.435 152.554 212.435 152.553 212.435 152.552C212.435 152.552 212.435 152.552 212.435 152.552C212.435 152.552 212.435 152.552 211.935 152.545ZM209.361 180.75C209.114 181.476 208.895 181.965 208.707 182.245C208.613 182.387 208.551 182.437 208.532 182.449C208.527 182.452 208.54 182.443 208.57 182.439C208.602 182.435 208.634 182.439 208.659 182.449C208.696 182.463 208.67 182.469 208.599 182.363C208.533 182.264 208.454 182.106 208.368 181.872C208.198 181.406 208.026 180.713 207.857 179.771C207.181 176 206.604 168.601 206.026 157.038L205.027 157.088C205.605 168.636 206.184 176.102 206.873 179.948C207.046 180.91 207.229 181.669 207.429 182.216C207.529 182.489 207.64 182.728 207.768 182.919C207.891 183.104 208.063 183.292 208.304 183.384C208.576 183.487 208.842 183.432 209.057 183.3C209.252 183.18 209.409 182.995 209.539 182.8C209.802 182.407 210.055 181.815 210.308 181.071L209.361 180.75ZM201.905 119.863L202.325 131.314L203.325 131.278L202.904 119.827L201.905 119.863ZM202.825 131.296C202.911 130.804 202.912 130.804 202.912 130.804C202.912 130.804 202.912 130.804 202.912 130.804C202.911 130.803 202.911 130.803 202.91 130.803C202.909 130.803 202.907 130.803 202.905 130.802C202.899 130.801 202.89 130.8 202.878 130.797C202.854 130.793 202.818 130.786 202.77 130.776C202.673 130.757 202.53 130.726 202.347 130.683C201.981 130.598 201.455 130.462 200.822 130.265C199.554 129.871 197.867 129.231 196.182 128.251C192.81 126.289 189.508 123.009 189.458 117.634L188.458 117.643C188.513 123.509 192.144 127.058 195.679 129.115C197.448 130.144 199.208 130.811 200.524 131.22C201.183 131.425 201.733 131.567 202.12 131.657C202.313 131.702 202.466 131.735 202.571 131.756C202.624 131.767 202.665 131.775 202.693 131.78C202.707 131.783 202.718 131.785 202.725 131.786C202.729 131.787 202.732 131.787 202.734 131.788C202.736 131.788 202.736 131.788 202.737 131.788C202.737 131.788 202.738 131.788 202.738 131.788C202.738 131.788 202.739 131.788 202.825 131.296ZM189.458 117.634C189.433 114.974 190.563 112.488 192.328 110.234C194.092 107.978 196.468 105.986 198.868 104.327C201.265 102.671 203.669 101.359 205.475 100.462C206.378 100.014 207.13 99.6691 207.655 99.4372C207.917 99.3213 208.123 99.2335 208.263 99.175C208.333 99.1457 208.386 99.1237 208.422 99.1092C208.439 99.1019 208.453 99.0965 208.461 99.093C208.466 99.0912 208.469 99.0899 208.471 99.0891C208.472 99.0887 208.473 99.0884 208.473 99.0882C208.473 99.0881 208.473 99.0881 208.474 99.0881C208.474 99.088 208.474 99.0881 208.288 98.6238C208.102 98.1596 208.102 98.1597 208.102 98.1598C208.102 98.1598 208.101 98.16 208.101 98.1601C208.1 98.1604 208.099 98.1608 208.098 98.1614C208.095 98.1624 208.091 98.164 208.086 98.166C208.076 98.17 208.062 98.176 208.043 98.1837C208.005 98.1993 207.949 98.2224 207.876 98.2528C207.731 98.3136 207.52 98.4038 207.251 98.5224C206.714 98.7596 205.948 99.1104 205.03 99.5664C203.196 100.478 200.747 101.813 198.299 103.505C195.854 105.195 193.39 107.253 191.54 109.617C189.69 111.982 188.43 114.683 188.458 117.643L189.458 117.634ZM208.288 98.6238C208.452 99.0962 208.452 99.0961 208.452 99.0961C208.452 99.096 208.453 99.0959 208.453 99.0958C208.453 99.0956 208.454 99.0954 208.455 99.095C208.457 99.0943 208.46 99.0933 208.464 99.0919C208.472 99.0893 208.483 99.0853 208.498 99.0801C208.527 99.0698 208.57 99.0545 208.626 99.0343C208.739 98.9941 208.903 98.9346 209.111 98.8574C209.526 98.703 210.119 98.4772 210.827 98.1912C212.243 97.6197 214.126 96.8055 215.99 95.8371C217.849 94.8716 219.714 93.7394 221.075 92.5263C222.405 91.3402 223.4 89.9453 223.175 88.4633L222.186 88.6137C222.328 89.5481 221.708 90.6219 220.409 91.7798C219.14 92.9108 217.361 93.9979 215.529 94.9497C213.703 95.8985 211.851 96.6995 210.453 97.2639C209.755 97.5459 209.171 97.7683 208.762 97.92C208.558 97.9958 208.398 98.0539 208.289 98.093C208.234 98.1125 208.193 98.1273 208.165 98.1371C208.151 98.142 208.141 98.1456 208.134 98.1481C208.13 98.1493 208.128 98.1502 208.126 98.1507C208.125 98.151 208.125 98.1512 208.124 98.1513C208.124 98.1514 208.124 98.1514 208.124 98.1515C208.124 98.1515 208.124 98.1515 208.288 98.6238ZM223.175 88.4633C222.771 85.8134 221.023 84.5396 219.427 83.9464C218.635 83.6519 217.872 83.5202 217.311 83.4615C217.029 83.432 216.795 83.4206 216.63 83.4167C216.547 83.4147 216.481 83.4145 216.435 83.4149C216.412 83.4151 216.394 83.4155 216.381 83.4158C216.375 83.4159 216.37 83.4161 216.366 83.4162C216.364 83.4163 216.362 83.4163 216.361 83.4164C216.36 83.4164 216.36 83.4164 216.359 83.4164C216.359 83.4164 216.359 83.4164 216.359 83.4164C216.358 83.4165 216.358 83.4165 216.377 83.9161C216.396 84.4158 216.396 84.4158 216.396 84.4158C216.396 84.4158 216.395 84.4158 216.395 84.4158C216.395 84.4158 216.395 84.4158 216.395 84.4158C216.395 84.4158 216.396 84.4158 216.397 84.4157C216.398 84.4157 216.401 84.4156 216.405 84.4155C216.413 84.4153 216.426 84.4151 216.444 84.4149C216.48 84.4146 216.535 84.4147 216.606 84.4164C216.748 84.4198 216.955 84.4297 217.207 84.4561C217.712 84.5089 218.387 84.6268 219.079 84.8838C220.451 85.3937 221.854 86.4311 222.186 88.6137L223.175 88.4633ZM216.877 83.9279L217.192 70.5859L216.192 70.5623L215.877 83.9043L216.877 83.9279ZM216.692 70.5741C216.551 71.0537 216.551 71.0537 216.551 71.0537C216.551 71.0537 216.551 71.0537 216.551 71.0537C216.551 71.0538 216.552 71.0539 216.552 71.054C216.553 71.0543 216.555 71.0548 216.557 71.0554C216.561 71.0567 216.568 71.0587 216.577 71.0614C216.595 71.0669 216.622 71.0752 216.658 71.0864C216.731 71.1087 216.839 71.1424 216.978 71.1875C217.258 71.2778 217.664 71.4136 218.17 71.5948C219.183 71.9571 220.591 72.5002 222.171 73.2219C225.341 74.67 229.161 76.8186 231.88 79.6406L232.6 78.9467C229.752 75.9907 225.798 73.7795 222.586 72.3123C220.975 71.5765 219.54 71.023 218.507 70.6532C217.991 70.4683 217.574 70.3292 217.286 70.236C217.142 70.1894 217.03 70.1543 216.953 70.1307C216.915 70.1189 216.885 70.11 216.865 70.104C216.855 70.101 216.848 70.0987 216.842 70.0971C216.84 70.0963 216.838 70.0957 216.836 70.0953C216.835 70.095 216.835 70.0949 216.834 70.0947C216.834 70.0947 216.834 70.0946 216.834 70.0946C216.834 70.0945 216.834 70.0945 216.692 70.5741ZM231.88 79.6406C234.551 82.4118 235.207 85.5558 235.194 88.0238C235.188 89.2596 235.013 90.3221 234.841 91.0744C234.754 91.4501 234.669 91.7473 234.606 91.9485C234.574 92.0491 234.548 92.1256 234.531 92.1759C234.522 92.201 234.515 92.2195 234.511 92.2313C234.509 92.2371 234.507 92.2413 234.506 92.2437C234.506 92.2449 234.505 92.2457 234.505 92.246C234.505 92.2461 234.505 92.2462 234.505 92.2461C234.505 92.2461 234.505 92.246 234.505 92.246C234.505 92.2458 234.505 92.2456 234.972 92.4256C235.438 92.6055 235.438 92.6053 235.439 92.605C235.439 92.6049 235.439 92.6046 235.439 92.6043C235.439 92.6038 235.439 92.6032 235.44 92.6025C235.44 92.601 235.441 92.5991 235.442 92.5967C235.443 92.592 235.446 92.5855 235.449 92.5773C235.455 92.5609 235.464 92.5374 235.474 92.5073C235.495 92.447 235.525 92.3599 235.56 92.2481C235.63 92.0246 235.723 91.702 235.815 91.2981C236.001 90.491 236.187 89.3539 236.194 88.0289C236.208 85.3756 235.498 81.9536 232.6 78.9467L231.88 79.6406ZM234.972 92.4256C234.513 92.228 234.513 92.2278 234.513 92.2276C234.513 92.2276 234.513 92.2275 234.513 92.2275C234.513 92.2275 234.513 92.2276 234.513 92.2279C234.512 92.2284 234.512 92.2295 234.511 92.2311C234.51 92.2343 234.507 92.2397 234.504 92.2471C234.497 92.262 234.487 92.2854 234.472 92.3167C234.443 92.3794 234.397 92.4742 234.335 92.5979C234.209 92.8454 234.014 93.2088 233.741 93.6633C233.194 94.5723 232.334 95.8454 231.088 97.2854C228.596 100.165 224.558 103.713 218.386 106.359L218.78 107.278C225.11 104.565 229.267 100.918 231.844 97.9399C233.132 96.4515 234.025 95.131 234.598 94.1786C234.884 93.7024 235.09 93.318 235.226 93.0505C235.294 92.9168 235.344 92.8122 235.378 92.7399C235.395 92.7038 235.408 92.6758 235.417 92.6562C235.421 92.6464 235.424 92.6387 235.427 92.6332C235.428 92.6304 235.429 92.6282 235.43 92.6265C235.43 92.6257 235.43 92.625 235.431 92.6244C235.431 92.6242 235.431 92.6238 235.431 92.6237C235.431 92.6234 235.431 92.6232 234.972 92.4256ZM218.386 106.359C212.137 109.037 207.672 111.096 204.753 112.794C203.295 113.643 202.197 114.416 201.451 115.148C200.709 115.876 200.259 116.619 200.224 117.407L201.223 117.45C201.242 117.03 201.488 116.512 202.151 115.862C202.81 115.215 203.825 114.491 205.256 113.659C208.116 111.995 212.528 109.957 218.78 107.278L218.386 106.359ZM200.224 117.407C200.166 118.757 200.643 119.538 201.239 119.953C201.521 120.15 201.805 120.247 202.016 120.295C202.123 120.319 202.213 120.331 202.28 120.338C202.313 120.341 202.341 120.343 202.362 120.344C202.373 120.344 202.382 120.345 202.389 120.345C202.392 120.345 202.395 120.345 202.398 120.345C202.399 120.345 202.401 120.345 202.402 120.345C202.402 120.345 202.403 120.345 202.403 120.345C202.404 120.345 202.404 120.345 202.404 120.345C202.404 120.345 202.405 120.345 202.405 119.845C202.405 119.345 202.405 119.345 202.405 119.345C202.406 119.345 202.406 119.345 202.406 119.345C202.406 119.345 202.407 119.345 202.407 119.345C202.408 119.345 202.408 119.345 202.409 119.345C202.41 119.345 202.41 119.345 202.411 119.345C202.411 119.345 202.41 119.345 202.407 119.345C202.402 119.345 202.392 119.344 202.377 119.343C202.346 119.34 202.298 119.333 202.238 119.32C202.118 119.292 201.962 119.238 201.811 119.133C201.54 118.944 201.177 118.517 201.223 117.45L200.224 117.407ZM205.317 173.031C205.811 172.957 205.811 172.957 205.811 172.957C205.811 172.957 205.811 172.956 205.811 172.956C205.811 172.956 205.811 172.955 205.811 172.954C205.811 172.953 205.81 172.95 205.81 172.947C205.809 172.94 205.807 172.93 205.805 172.917C205.801 172.891 205.796 172.852 205.788 172.801C205.773 172.699 205.751 172.548 205.723 172.356C205.668 171.971 205.59 171.42 205.5 170.752C205.32 169.415 205.091 167.614 204.895 165.756C204.698 163.896 204.536 161.986 204.487 160.429C204.463 159.649 204.467 158.968 204.508 158.43C204.551 157.866 204.63 157.542 204.703 157.411L203.829 156.925C203.639 157.267 203.554 157.792 203.511 158.354C203.466 158.943 203.462 159.664 203.487 160.46C203.537 162.054 203.703 163.992 203.9 165.861C204.098 167.732 204.328 169.543 204.509 170.885C204.6 171.557 204.678 172.111 204.734 172.498C204.761 172.692 204.784 172.843 204.799 172.947C204.806 172.998 204.812 173.038 204.816 173.065C204.818 173.078 204.82 173.088 204.821 173.095C204.821 173.098 204.822 173.101 204.822 173.103C204.822 173.104 204.822 173.104 204.822 173.105C204.822 173.105 204.822 173.105 204.822 173.105C204.822 173.105 204.822 173.105 205.317 173.031ZM204.759 157.25C204.823 156.866 205.131 156.382 205.761 155.784C206.378 155.198 207.236 154.565 208.275 153.872C209.311 153.181 210.505 152.445 211.789 151.648C213.07 150.853 214.435 150.001 215.799 149.087C218.523 147.26 221.269 145.165 223.363 142.736C225.46 140.303 226.927 137.506 227.038 134.283L226.038 134.249C225.938 137.171 224.609 139.758 222.605 142.083C220.599 144.41 217.941 146.446 215.242 148.256C213.894 149.16 212.542 150.004 211.262 150.798C209.984 151.591 208.773 152.338 207.72 153.04C206.669 153.741 205.753 154.412 205.073 155.058C204.406 155.692 203.893 156.367 203.773 157.086L204.759 157.25ZM227.038 134.248C226.899 130.308 223.783 127.479 220.874 125.676C219.402 124.763 217.942 124.088 216.852 123.64C216.307 123.416 215.852 123.249 215.532 123.137C215.373 123.081 215.247 123.039 215.16 123.01C215.116 122.996 215.083 122.986 215.06 122.978C215.048 122.975 215.039 122.972 215.033 122.97C215.03 122.969 215.027 122.968 215.026 122.968C215.025 122.967 215.024 122.967 215.024 122.967C215.023 122.967 215.023 122.967 215.023 122.967C215.023 122.967 215.022 122.967 214.877 123.445C214.731 123.923 214.731 123.923 214.731 123.923C214.731 123.923 214.731 123.923 214.731 123.923C214.731 123.923 214.731 123.923 214.732 123.924C214.733 123.924 214.735 123.924 214.737 123.925C214.742 123.927 214.749 123.929 214.759 123.932C214.779 123.938 214.81 123.948 214.85 123.961C214.93 123.987 215.049 124.027 215.202 124.081C215.507 124.187 215.945 124.349 216.473 124.565C217.529 124.999 218.936 125.651 220.347 126.526C223.204 128.296 225.919 130.878 226.038 134.283L227.038 134.248ZM214.378 123.414L213.642 135.075L214.64 135.138L215.376 123.477L214.378 123.414ZM214.141 135.106C214.273 135.589 214.273 135.589 214.273 135.589C214.273 135.589 214.272 135.589 214.272 135.589C214.272 135.589 214.272 135.589 214.272 135.589C214.272 135.589 214.272 135.589 214.272 135.589C214.272 135.589 214.273 135.589 214.274 135.588C214.277 135.588 214.281 135.586 214.288 135.585C214.301 135.582 214.321 135.577 214.348 135.571C214.403 135.559 214.482 135.543 214.577 135.528C214.772 135.499 215.018 135.478 215.252 135.499C215.492 135.521 215.667 135.583 215.775 135.67C215.86 135.74 215.953 135.865 215.953 136.157H216.953C216.953 135.608 216.756 135.181 216.408 134.896C216.082 134.63 215.68 134.534 215.342 134.503C214.998 134.472 214.666 134.503 214.428 134.54C214.306 134.558 214.205 134.578 214.133 134.594C214.097 134.602 214.068 134.609 214.047 134.614C214.036 134.617 214.028 134.619 214.022 134.621C214.019 134.621 214.016 134.622 214.014 134.623C214.013 134.623 214.012 134.623 214.011 134.623C214.011 134.623 214.011 134.624 214.011 134.624C214.01 134.624 214.01 134.624 214.01 134.624C214.01 134.624 214.01 134.624 214.141 135.106ZM215.953 136.157C215.953 136.121 215.961 136.157 215.879 136.293C215.805 136.415 215.686 136.572 215.517 136.764C215.179 137.147 214.682 137.622 214.06 138.165C212.819 139.251 211.127 140.571 209.337 141.916C205.786 144.582 201.8 147.375 200.387 148.474L201.001 149.263C202.425 148.155 206.318 145.433 209.937 142.715C211.732 141.368 213.448 140.029 214.718 138.918C215.352 138.364 215.887 137.856 216.267 137.426C216.456 137.211 216.618 137.004 216.735 136.811C216.843 136.632 216.953 136.402 216.953 136.157H215.953ZM200.387 148.474C197.426 150.777 195.992 154.076 195.992 157.273H196.992C196.992 154.376 198.29 151.372 201.001 149.263L200.387 148.474ZM195.992 157.273C195.992 160.419 196.762 167.535 205.026 173.438L205.607 172.624C197.693 166.971 196.992 160.22 196.992 157.273H195.992ZM199.792 64.4365L200.422 79.3544L201.421 79.3122L200.791 64.3943L199.792 64.4365ZM200.922 79.3333C201.061 78.853 201.061 78.8531 201.061 78.8531C201.061 78.8531 201.061 78.8531 201.061 78.853C201.06 78.8529 201.06 78.8528 201.059 78.8525C201.057 78.852 201.055 78.8512 201.051 78.85C201.043 78.8477 201.031 78.8441 201.014 78.839C200.981 78.829 200.931 78.8135 200.866 78.7924C200.734 78.7501 200.54 78.6852 200.291 78.5959C199.793 78.4174 199.078 78.1417 198.219 77.7551C196.5 76.9813 194.21 75.7666 191.923 74.0033C187.352 70.48 182.813 64.7888 182.813 56.0384H181.813C181.813 65.1907 186.579 71.1469 191.312 74.7954C193.677 76.618 196.039 77.8702 197.809 78.667C198.694 79.0656 199.434 79.351 199.953 79.5373C200.213 79.6304 200.418 79.6989 200.559 79.7443C200.63 79.767 200.685 79.784 200.722 79.7955C200.741 79.8012 200.755 79.8055 200.766 79.8085C200.771 79.81 200.775 79.8112 200.777 79.812C200.779 79.8124 200.78 79.8128 200.781 79.813C200.781 79.8131 200.782 79.8133 200.782 79.8133C200.782 79.8134 200.782 79.8135 200.922 79.3333ZM182.813 56.0384C182.813 47.2717 187.562 39.9983 192.481 34.8215C197.395 29.6502 202.421 26.6321 202.845 26.3848L202.341 25.521C201.873 25.7937 196.76 28.867 191.756 34.1327C186.758 39.393 181.813 46.9024 181.813 56.0384H182.813ZM202.845 26.3848C203.278 26.132 204.961 25.1805 207.118 24.3487C209.288 23.5122 211.874 22.8217 214.135 23.0336L214.228 22.038C211.734 21.8041 208.972 22.5622 206.759 23.4157C204.533 24.2739 202.799 25.2538 202.341 25.521L202.845 26.3848ZM214.135 23.0336C218.771 23.4683 220.807 24.9746 222.13 26.4369L222.872 25.766C221.372 24.1084 219.1 22.4947 214.228 22.038L214.135 23.0336ZM222.13 26.4369C223.516 27.9678 227.267 33.1202 228.874 36.9902L229.797 36.6068C228.135 32.6027 224.31 27.3551 222.872 25.766L222.13 26.4369ZM228.874 36.9902C229.661 38.8875 229.756 40.3235 229.638 41.2875C229.578 41.7714 229.465 42.138 229.357 42.3871C229.303 42.5121 229.252 42.6039 229.212 42.6645C229.165 42.7362 229.152 42.737 229.184 42.7128L229.784 43.5128C229.891 43.4329 229.98 43.3175 230.048 43.2134C230.124 43.0981 230.201 42.9544 230.275 42.7845C230.422 42.444 230.56 41.9842 230.63 41.4094C230.772 40.2563 230.644 38.6467 229.797 36.6068L228.874 36.9902ZM229.184 42.7128C228.915 42.9144 228.906 43.0303 228.526 43.1747C228.166 43.3118 227.493 43.4285 226.196 43.2844L226.086 44.2783C227.464 44.4313 228.314 44.3252 228.882 44.1094C229.43 43.9009 229.756 43.5339 229.784 43.5128L229.184 42.7128ZM226.196 43.2844C224.901 43.1404 222.818 42.6487 220.799 42.1185C218.789 41.5905 216.886 41.036 215.95 40.7742L215.681 41.7371C216.603 41.9952 218.525 42.555 220.545 43.0856C222.556 43.6139 224.707 44.1251 226.086 44.2783L226.196 43.2844ZM215.95 40.7742C215.518 40.6531 215.124 40.4962 214.721 40.3219C214.327 40.1516 213.901 39.9539 213.454 39.7782C212.535 39.4163 211.47 39.1214 209.947 39.1214V40.1214C211.321 40.1214 212.262 40.3835 213.088 40.7088C213.515 40.8767 213.896 41.055 214.324 41.2399C214.743 41.4208 215.185 41.5982 215.681 41.7371L215.95 40.7742ZM209.947 39.1214C209.137 39.1214 208.125 39.3621 207.047 39.7741C205.961 40.1893 204.776 40.7906 203.613 41.5411C201.293 43.0367 199.005 45.1584 197.763 47.6434L198.657 48.0906C199.792 45.8214 201.924 43.8202 204.155 42.3815C205.266 41.6649 206.389 41.0963 207.404 40.7082C208.427 40.3171 209.309 40.1214 209.947 40.1214V39.1214ZM197.784 47.605C196.863 49.1017 195.58 51.9424 195.437 55.1373C195.292 58.3587 196.309 61.9376 199.983 64.8094L200.599 64.0215C197.218 61.379 196.303 58.1323 196.436 55.1823C196.57 52.2058 197.774 49.5295 198.636 48.1291L197.784 47.605ZM224.348 32.8876C224.348 33.3441 224.183 33.7736 223.901 34.0834L224.64 34.7564C225.098 34.2534 225.348 33.5805 225.348 32.8876H224.348ZM223.901 34.0834C223.62 34.3916 223.25 34.5546 222.876 34.5546V35.5546C223.548 35.5546 224.181 35.261 224.64 34.7564L223.901 34.0834ZM222.876 34.5546C222.502 34.5546 222.132 34.3916 221.851 34.0834L221.112 34.7564C221.571 35.261 222.204 35.5546 222.876 35.5546V34.5546ZM221.851 34.0834C221.569 33.7736 221.404 33.3441 221.404 32.8876H220.404C220.404 33.5805 220.654 34.2534 221.112 34.7564L221.851 34.0834ZM221.404 32.8876C221.404 32.431 221.569 32.0016 221.851 31.6918L221.112 31.0187C220.654 31.5217 220.404 32.1947 220.404 32.8876H221.404ZM221.851 31.6918C222.132 31.3835 222.502 31.2205 222.876 31.2205V30.2205C222.204 30.2205 221.571 30.5141 221.112 31.0187L221.851 31.6918ZM222.876 31.2205C223.25 31.2205 223.62 31.3835 223.901 31.6918L224.64 31.0187C224.181 30.5141 223.548 30.2205 222.876 30.2205V31.2205ZM223.901 31.6918C224.183 32.0016 224.348 32.431 224.348 32.8876H225.348C225.348 32.1947 225.098 31.5217 224.64 31.0187L223.901 31.6918Z" fill="#461990"/>
</svg>
